<svg width="25.1" height="30.404998999999997" xmlns="http://www.w3.org/2000/svg" xmlns:svg="http://www.w3.org/2000/svg">
 <g display="inline">
  <title>Layer 1</title>
  <g stroke="null" id="svg_3">
   <path stroke="null" opacity="0.8" fill="#ffcd50" id="Shield" d="m0.42934,0.42901l12.17054,0l12.17055,0l0,17.02165c0.07527,9.19494 -7.87717,12.54037 -12.17055,12.54037c-4.21811,0 -12.24582,-3.34543 -12.17055,-12.54037l0,-17.02165l0,0z"/>
   <path stroke="null" opacity="0.8" fill="#d40000" id="Cross" d="m8.513,0.43002l0,9.62395l-8.08484,0l0,7.39806c-0.00216,0.26409 0.00441,0.52118 0.01533,0.77571l8.06951,0l0,10.95758c1.48482,0.5554 2.92958,0.80636 4.08688,0.80636c1.16941,0 2.61071,-0.24709 4.08688,-0.79408l0,-10.96986l8.06952,0c0.01081,-0.25453 0.01749,-0.51161 0.01533,-0.77571l0,-7.39806l-8.08484,0l0,-9.62395l-4.08688,0l-4.08688,0z"/>
   <path stroke="null" opacity="0.8" fill="#ffcd50" id="Crown" d="m7.4467,11.41876c0.73803,1.04474 1.18286,2.26808 1.2883,3.54284l0,1.93243c2.55869,-0.42941 5.17105,-0.42941 7.72975,0l0,-1.93243c0.10547,-1.27475 0.5503,-2.4981 1.28828,-3.54284c-0.31513,-0.28658 -0.79989,-0.27503 -1.10109,0.02617c-0.30119,0.3012 -0.31267,0.78596 -0.02609,1.1011l-0.23223,0.51085c-0.13588,-0.2646 -0.43531,-0.40168 -0.72444,-0.33171c-0.28903,0.06986 -0.49271,0.32868 -0.49271,0.62602c0,0.1982 0.09114,0.38529 0.24724,0.50735c0.15609,0.12214 0.35957,0.1656 0.55187,0.11791l-0.15491,0.34103c-0.06936,0.20792 -0.26391,0.34821 -0.48319,0.34821c-0.21918,0 -0.41373,-0.14029 -0.48309,-0.34821l0,-1.93247c0.17787,0 0.32209,-0.14419 0.32209,-0.32207c0,-0.17788 -0.14422,-0.32211 -0.32209,-0.32211c-0.17787,0 -0.32209,0.14423 -0.32209,0.32211c0,0.14383 0.09536,0.27019 0.2337,0.30973l-0.55569,1.94482c-0.07447,0.23467 -0.31013,0.37901 -0.55295,0.3385c-0.24292,-0.04054 -0.41903,-0.25344 -0.41334,-0.49959l-0.0727,-0.6183c0.19426,0.15069 0.45739,0.1777 0.67813,0.06957c0.22085,-0.1082 0.36085,-0.33258 0.36085,-0.57855c0,-0.27323 -0.17248,-0.51685 -0.43031,-0.60761c-0.25783,-0.09073 -0.5448,-0.00892 -0.716,0.20416l-0.03993,-0.33875c0.33171,-0.16207 0.54206,-0.49898 0.54206,-0.86816c0,-0.46161 -0.32661,-0.85878 -0.77958,-0.94795l-0.02561,-0.17925c0,-0.08899 -0.07211,-0.16109 -0.161,-0.16109c-0.08899,0 -0.1611,0.0721 -0.1611,0.16109l-0.02561,0.17925c-0.45297,0.08917 -0.77958,0.48634 -0.77958,0.94795c0,0.36919 0.21035,0.7061 0.54206,0.86816l-0.03983,0.33875c-0.1712,-0.21308 -0.45827,-0.29489 -0.716,-0.20416c-0.25783,0.09076 -0.43031,0.33438 -0.43031,0.60761c0,0.24597 0.1399,0.47035 0.36075,0.57855c0.22075,0.10813 0.48388,0.08112 0.67823,-0.06957l-0.0728,0.6183c0.00579,0.24615 -0.17042,0.45905 -0.41324,0.49959c-0.24292,0.04051 -0.47858,-0.10383 -0.55295,-0.3385l-0.55569,-1.94482c0.13824,-0.03953 0.2336,-0.16589 0.2336,-0.30973c0,-0.17788 -0.14422,-0.32211 -0.3221,-0.32211c-0.17787,0 -0.32206,0.14423 -0.32206,0.32211c0,0.17788 0.14419,0.32207 0.32206,0.32207l0,1.93247c-0.06927,0.20792 -0.2639,0.34821 -0.4831,0.34821c-0.21921,0 -0.41381,-0.14029 -0.48311,-0.34821l-0.15499,-0.34103c0.19231,0.04769 0.39586,0.00422 0.55191,-0.11791c0.15605,-0.12206 0.24724,-0.30915 0.24724,-0.50735c0,-0.29734 -0.20364,-0.55616 -0.49274,-0.62602c-0.2891,-0.06997 -0.58848,0.06711 -0.72438,0.33171l-0.23221,-0.51085c0.28658,-0.31514 0.27507,-0.79989 -0.02615,-1.1011c-0.30123,-0.30121 -0.78594,-0.31276 -1.10111,-0.02617l0,0z"/>
   <path stroke="#000000" opacity="0.8" fill="none" fill-opacity="0" stroke-width="0.2" stroke-linecap="round" id="Frame" d="m24.716,0.42963l-12.17055,0l-12.17055,0l0,17.02169c-0.07527,9.19494 7.87717,12.54037 12.17055,12.54037c4.21811,0 12.24582,-3.34543 12.17055,-12.54037l0,-17.02169z"/>
  </g>
 </g>
</svg>