<svg width="30" height="48" xmlns="http://www.w3.org/2000/svg" xmlns:svg="http://www.w3.org/2000/svg">
 <g>
  <title>Layer 1</title>
  <g id="svg_1">
   <path id="svg_2" d="m15.1,47.1c-0.4,-0.1 -0.9,-2 -1.3,-3.6c-0.7,-2.5 -1.7,-6.4 -3.7,-10.9c-0.8,-1.9 -2.3,-3.9 -3.8,-6.1c-2.7,-3.8 -5.5,-7.7 -5.5,-11.8c0,-7.7 6.4,-14.1 14.3,-14.1s14.3,6.4 14.3,14.2c0,4.1 -2.8,8.3 -5.4,11.9c-1.4,2 -2.7,3.9 -3.5,5.7c-2.1,4.6 -3.3,8.5 -4.1,11.1c-0.5,1.7 -1,3.4 -1.3,3.6z" fill="#000080"/>
   <path id="svg_3" d="m15.1,1c7.7,0 14,6.2 14,13.7c0,4 -2.7,7.9 -5.3,11.7c-1.4,2 -2.7,3.9 -3.6,5.8c-2.1,4.6 -3.3,8.5 -4.1,11.1c-0.4,1.2 -0.8,2.5 -1.1,3.1c-0.3,-0.6 -0.6,-1.9 -0.9,-3.1c-0.7,-2.5 -1.7,-6.4 -3.7,-10.9c-0.9,-2 -2.3,-4 -3.8,-6.1c-2.7,-3.7 -5.5,-7.6 -5.5,-11.6c0,-7.5 6.3,-13.7 14,-13.7m0,-0.7c-8.1,0 -14.7,6.5 -14.7,14.5c0,6.5 7.1,12.8 9.4,18c3.8,8.8 4,14.7 5.4,14.7c1.1,0 1.8,-6 5.8,-15c2.3,-5.1 8.9,-11.3 8.9,-17.8c-0.1,-7.9 -6.7,-14.4 -14.8,-14.4l0,0z" fill="#FFFFFF"/>
  </g>
  <polygon id="svg_4" points="12.8,18.1 17.4,18 15.2,22.8 " fill="#FFFFFF"/>
  <g id="svg_5">
   <path id="svg_6" d="m9.6,5.8c2.5,0 4.6,1.5 5.5,3.7c0.9,-2.1 3,-3.7 5.5,-3.7c3.2,0 5.8,2.5 5.9,5.7c0,-0.1 0,-0.1 0,-0.2c0,-4.6 -5.1,-8.4 -11.4,-8.4s-11.4,3.8 -11.4,8.4c0,0.1 0,0.1 0,0.2c0.1,-3.2 2.7,-5.7 5.9,-5.7z" fill="#FFFFFF"/>
  </g>
  <circle id="svg_7" r="4" cy="11.7" cx="9.6" stroke-miterlimit="10" stroke-width="0.75" stroke="#FFFFFF" fill="none"/>
  <circle id="svg_8" r="4" cy="11.7" cx="20.6" stroke-miterlimit="10" stroke-width="0.75" stroke="#FFFFFF" fill="none"/>
 </g>
</svg>