<svg width="1410.3" height="710.3" xmlns="http://www.w3.org/2000/svg" xmlns:svg="http://www.w3.org/2000/svg">
 <g>
  <title>Layer 1</title>
  <g id="svg_1" stroke="null">
   <g id="logo" stroke="null">
    <path id="head" d="m212.61551,170.03214c82.60434,0 153.36429,50.44072 183.28156,122.22174c29.91727,-71.78104 100.67722,-122.22174 183.28152,-122.22174c107.21204,0 194.51331,85.0549 198.29126,191.34796c0.10211,-2.45056 0.10211,-5.00323 0.10211,-7.55591c0,-154.2832 -170.82452,-279.46606 -381.6749,-279.46606s-381.67483,125.18288 -381.67483,279.46609c0,2.55267 0,5.00323 0.10211,7.55591c3.77795,-106.29312 91.0792,-191.34799 198.29118,-191.34799l-0.00002,0z" stroke-width="4" stroke="#ffffff" fill="#ffffff"/>
    <polygon id="beak" points="347.9068965239653,547.1122290364729 442.86614077521654,546.1932436798379 396.4075857920775,645.1346747151838 " stroke-width="4" stroke="#ffffff" fill="#ffffff"/>
   </g>
   <g id="eyes" stroke="null">
    <circle id="left-eye" fill="none" stroke-width="11" stroke-miterlimit="10" cx="212.61557" cy="368.42548" r="135.2914" stroke="#ffffff"/>
    <circle id="right-eye" fill="none" stroke-width="11" stroke-miterlimit="10" cx="579.17867" cy="368.42548" r="135.2914" stroke="#ffffff"/>
   </g>
   <g id="letters" stroke="null">
    <path id="d" class="letter" d="m1052.3175,57l13.0697,0l0,449.06531l-13.0697,0l0,-73.61893l-1.73572,0c-11.84424,26.95612 -28.7934,47.27542 -50.74603,61.16187c-21.95294,13.88657 -46.05011,20.82962 -72.18939,20.82962c-19.80872,0 -38.08582,-3.67581 -54.93347,-11.02753c-16.8476,-7.35165 -31.24463,-17.46024 -43.39532,-30.32565c-12.04858,-12.86548 -21.44244,-28.07935 -28.18146,-45.7438c-6.73901,-17.66446 -10.10858,-36.75842 -10.10858,-57.28192c0,-20.62549 3.36957,-39.82159 10.10858,-57.58813c6.73901,-17.86865 16.13287,-33.2868 28.18146,-46.35645c12.04865,-13.06956 26.54773,-23.28024 43.39532,-30.63193c16.84766,-7.3517 35.12476,-11.02753 54.93347,-11.02753c26.13928,0 50.23645,6.94324 72.18939,20.82979c21.95264,13.88646 38.90179,34.40999 50.74603,61.77458l1.73572,0l0,-250.05931l0,0.00001l0,0.00003l0,-0.00001l0,-0.00001zm-248.32239,313.0592c0,17.86865 2.85895,34.81839 8.57697,51.05334c5.71796,16.23495 13.98859,30.42783 24.60773,42.47641c10.72119,12.04858 23.68872,21.64664 38.90259,28.7941c15.21393,7.14746 32.36786,10.72119 51.35974,10.72119c18.17499,0 34.92047,-3.57373 50.23645,-10.72119c15.21393,-7.14746 28.38574,-16.74551 39.5152,-28.7941c11.12933,-12.04861 19.80804,-26.24146 26.13837,-42.47641c6.33057,-16.23495 9.49585,-33.491 9.49585,-51.66602c0,-18.17496 -3.16528,-35.431 -9.49585,-51.66595c-6.33032,-16.23499 -15.00903,-30.42783 -26.13837,-42.47641c-11.12946,-12.04861 -24.30127,-21.64665 -39.5152,-28.7941c-15.21387,-7.14748 -31.95935,-10.72121 -50.23645,-10.72121c-18.99188,0 -36.14581,3.67584 -51.35974,11.02751c-15.21387,7.3517 -28.1814,17.15393 -38.90259,29.40674c-10.72125,12.25281 -18.88977,26.54776 -24.60773,42.78268c-5.71802,16.23495 -8.57697,33.18466 -8.57697,51.05338l0,0.00003z" stroke="#ffffff" fill="#ffffff"/>
    <path id="l" class="letter" d="m1144.92822,506.06531l0,-449.06531l13.0697,0l0,449.06531l-13.0697,0z" stroke="#ffffff" fill="#ffffff"/>
    <path id="s" class="letter" d="m1392.84338,434.79483c0,12.25281 -2.34851,23.28033 -7.14746,32.98047c-4.79895,9.70013 -11.23169,17.97079 -19.29822,24.60773c-8.16846,6.73904 -17.56226,11.84439 -28.1814,15.41812c-10.72119,3.57373 -22.1571,5.30957 -34.40991,5.30957c-20.21716,0 -38.49426,-3.8801 -54.93347,-11.53809c-16.43909,-7.76013 -30.01941,-19.09393 -40.63855,-34.10364l10.72131,-7.14746c19.80872,27.77304 48.29651,41.55743 85.56543,41.55743c8.67908,0 17.56226,-1.4295 26.44568,-4.18637c8.88318,-2.7569 17.05176,-6.9433 24.40356,-12.45703c7.35156,-5.51376 13.2738,-12.457 17.86865,-20.82977c4.59473,-8.27066 6.84106,-17.86868 6.84106,-28.48776c0,-12.66107 -2.85901,-22.97403 -8.57703,-30.83618c-5.7179,-7.96439 -12.96741,-14.29495 -21.64648,-18.99191c-8.67908,-4.79901 -18.27722,-8.5769 -28.79419,-11.53806c-10.51697,-2.96109 -20.31921,-5.61588 -29.40674,-8.06644c-9.90442,-2.75681 -19.19604,-5.82001 -27.87512,-9.18958c-8.67908,-3.36957 -16.33704,-7.76013 -22.87195,-13.0697c-6.53467,-5.30951 -11.64001,-11.94647 -15.41809,-19.9108c-3.77783,-7.96432 -5.61584,-17.86868 -5.61584,-29.71304c0,-11.84436 2.34851,-22.15717 7.14746,-30.83624c4.79907,-8.67897 11.12964,-15.92863 18.99182,-21.64661c7.96436,-5.718 16.94983,-10.10858 27.05823,-13.06964c10.10864,-2.96107 20.31934,-4.49269 30.63208,-4.49269c37.16687,0 65.14417,13.27386 83.72754,39.82161l-11.33386,6.53482c-9.08752,-11.84439 -19.40027,-20.72768 -30.83618,-26.44563c-11.53809,-5.71799 -25.32251,-8.57698 -41.5575,-8.57698c-7.55579,0 -15.41809,1.02107 -23.79077,2.96111c-8.27063,1.94002 -15.92871,5.20743 -22.87195,9.80223c-6.94336,4.5948 -12.66125,10.61914 -17.2561,18.07291c-4.59473,7.55588 -6.84106,16.6434 -6.84106,27.36459c0,11.84436 1.83789,21.34027 5.61584,28.48773c3.77795,7.14749 8.98535,12.86551 15.72449,17.25604c6.73901,4.39056 14.80542,8.06644 24.40344,11.0275s20.01294,5.8201 31.44885,8.57703c10.72119,2.75687 21.13611,6.02423 31.14258,9.80222c10.10852,3.77798 18.99182,8.37277 26.75195,13.98865c7.76013,5.51376 13.8866,12.45703 18.37915,20.82977c4.08423,8.16852 6.43274,18.48129 6.43274,30.7341z" stroke="#ffffff" fill="#ffffff"/>
   </g>
  </g>
 </g>
</svg>